# xmcd
# Copyright (C) 1995-1998 Ti Kan
#
# Track frame offsets:
#       150
#       16230
#       36377
#       51993
#       68702
#       82356
#       100195
#       121566
#       135204
#       150500
#       168426
#
# Disc length: 2368 seconds
#
# Revision: 2
# Processed by: cddbd v1.5.2PL0 Copyright (c) Steve Scherf et al.
# Submitted via: CD-Transfer v1.0
#
DISCID=85093e0b
DTITLE=Soda - Update
DYEAR=2007
DGENRE=
TTITLE0=E Bechume De Scho
TTITLE1=Stärnschnuppe
TTITLE2=Geile Siech
TTITLE3=E Wott De Wieder Gseh
TTITLE4=Radio
TTITLE5=Niemer
TTITLE6=Sexappeal
TTITLE7=Unendläch Truurig
TTITLE8=E Bechume De Scho (Rock)
TTITLE9=Versteckis
TTITLE10=Assugrin
EXTD=
EXTT0=
EXTT1=
EXTT2=
EXTT3=
EXTT4=
EXTT5=
EXTT6=
EXTT7=
EXTT8=
EXTT9=
EXTT10=
PLAYORDER=
